<?xml version="1.0" encoding="UTF-8"?>
<svg width="17px" height="17px" viewBox="0 0 17 17" version="1.1" xmlns="http://www.w3.org/2000/svg" xmlns:xlink="http://www.w3.org/1999/xlink">
    <title>PostGreSQL - dark</title>
    <g id="Page-1" stroke="none" stroke-width="1" fill="none" fill-rule="evenodd">
        <g id="PostGreSQL---dark" transform="translate(0.265565, 0.956472)" fill="#666666" fill-rule="nonzero">
            <path d="M12.0498522,5.41916463 C11.7256982,5.45131355 11.6527636,5.57990926 11.5291799,5.64712974 C11.4744789,5.75818967 11.4521933,5.75234441 11.4380116,5.93939271 C11.5919847,6.18197097 11.6953088,6.26088197 11.9586839,6.36317401 C12.4885544,6.32288592 12.3631011,6.11387356 12.4570706,5.74357652 C12.3496946,5.52730192 12.3124542,5.51211071 12.0498522,5.41916463 Z M6.00297125,5.54059158 C5.50157667,5.5649774 5.52358363,5.50405789 5.28958715,6.13190757 C5.35279692,6.5674587 5.46099145,6.76915284 6.02768944,6.84059158 C6.41519834,6.54177037 6.49648304,6.50897517 6.57406625,5.99683714 C6.46687112,5.85551428 6.47183112,5.64967447 6.00297125,5.54059158 Z" id="Shape"></path>
            <path d="M15.343948,10.3011862 C14.981499,10.0546556 14.3872133,10.2440434 13.903948,10.3191454 C13.5708868,10.3713903 13.2525194,10.2750638 13.0288459,10.2097576 C12.9733357,10.0366964 13.3355102,9.11836735 13.435102,8.95183673 C13.7208163,8.39346939 14.0065306,7.83346939 14.2922449,7.27510204 C14.72,6.29061224 15.8106122,3.44 15.2587755,2.0244898 C14.7493878,0.721632653 12.8685714,-0.0342857144 10.9371429,0.00163265295 C10.6873469,0.0326530611 10.4391837,0.0620408162 10.1893878,0.0930612244 C9.88571429,0.171428571 9.58204082,0.251428571 9.27836735,0.329795918 C8.78367347,0.290612245 8.13877551,0.0881632652 7.51020408,0.202448979 C7.2244898,0.275918367 6.93877551,0.347755102 6.65306123,0.42122449 C6.44571429,0.524081633 6.24,0.628571428 6.03265306,0.731428571 C5.88734694,0.67755102 5.74040816,0.622040816 5.59510204,0.568163265 C5.2,0.476734694 4.80489796,0.385306122 4.40979592,0.295510204 C2.63510204,-0.0571428573 1.1444898,0.542040816 0.511020409,1.58693878 C-0.760816326,3.68489796 0.680816327,7.8955102 1.44,9.66204082 C1.71428572,10.2987755 2.01469388,10.9665306 2.51591837,11.3763265 C3.47755102,12.1632653 4.19591837,11.1036735 4.64816327,10.5371429 C4.86040816,10.3004082 5.07428572,10.0636735 5.28653061,9.82693878 C5.34693878,9.76653061 5.40734694,9.70612245 5.46938776,9.64408163 C5.46938776,9.64408163 6.26612245,9.88571429 6.41795918,9.89877551 C6.41795918,9.90530612 6.72125571,10.243798 6.72125571,10.2503286 C6.59390877,10.4250225 6.23346939,10.8551133 6.03265306,10.9498072 C5.67020408,11.1196031 4.41637789,11.2285018 4.5829085,11.8407467 C4.7396432,12.4170732 5.63530709,12.3454167 6.43235583,12.2195288 C6.78322691,12.0857462 7.13508079,12.0322696 7.47428572,11.9339584 C7.48081633,12.3470196 7.4677551,12.1469388 7.47428572,12.56 C7.70122449,14.0146939 7.42204082,15.1216327 8.45877551,15.7861224 C8.95183674,16.1028571 9.73551021,16.0179592 10.3004082,15.84 C11.7844898,15.3746939 11.684898,14.4114286 11.9771429,12.795102 C12.0440816,12.2416327 12.0508868,12.2913903 12.1178255,11.7379209 C12.3837899,11.7119691 13.1466624,11.6946943 13.496249,11.6395668 C14.1973619,11.4634104 14.1973619,11.3786613 14.8900704,11.1730229 C15.1627235,10.9754719 15.4859888,10.7550638 15.343948,10.3011862 Z M12.2018306,1.08443578 C12.7614407,1.22113969 13.3341302,1.64426254 13.8343266,2.06835061 C13.9678194,2.28132919 14.079317,2.46973035 14.1342345,2.60074788 C14.241716,2.85886026 14.1529293,3.51162979 14.0917355,3.78151022 C13.8808042,4.80060977 13.4411357,5.92965682 13.3305161,6.03952717 C13.3305161,6.04498363 13.4594626,4.77091166 13.4358086,4.56395459 C13.4341447,4.055906 13.3666034,3.47534444 13.1940878,2.94877866 C12.8643883,2.39206451 12.7498954,2.11011341 12.3482129,1.81591237 C12.20935,1.71392268 11.4222993,1.14204808 11.4168075,1.13890994 C11.5423333,1.118512 12.0415689,1.04400006 12.2018306,1.08443578 Z M12.2210497,7.29384885 C12.2971867,7.78796288 12.1355897,8.19040166 12.0656679,8.56021027 C12.0547912,8.56642554 12.0423606,8.57108699 12.0314839,8.57730226 C11.9506854,8.40948995 11.9359311,8.36536432 11.8551326,8.19755201 C11.493093,7.57913258 10.9594177,6.98779971 10.7294527,6.2404134 C10.6362236,5.93897277 10.5756248,5.38736749 10.7465447,5.12943376 C10.9842788,4.76894805 11.749473,4.74030766 12.3228317,4.76206111 C12.2715557,5.22509878 12.1806504,6.87121044 12.2210497,7.29384885 Z M3.21679483,10.3665045 C2.80708402,9.94847562 2.32631815,8.57049463 2.1724293,8.17356424 C1.70387276,6.95670578 0.848044802,4.27251531 1.51536465,2.76040986 C1.72929597,2.27420232 2.05847089,1.83331197 2.62125611,1.69231178 C2.82060121,1.66921692 3.0199463,1.64733758 3.21807587,1.62424273 C3.91456817,1.63275136 4.65299707,1.77724563 4.65299707,1.78210771 C4.0099876,2.62324675 3.86290982,3.06691113 3.66234921,4.37480941 C3.67085784,4.79537893 3.62102157,5.56208967 3.62102157,6.3281482 C3.62170095,7.16155821 3.78915927,8.23645563 4.26709185,9.0603751 C3.97980679,9.54465945 3.5615275,10.0592808 3.21679483,10.3665045 Z M4.79259824,7.31984357 C4.69164179,6.89381375 4.76834276,6.37691448 4.80902299,5.95287244 C4.82751951,5.4986814 4.8351925,5.54993763 4.89670529,5.12824137 C5.09476108,5.00650254 5.34723662,4.97056137 5.5452924,4.84882254 C5.76338631,4.77936048 5.9830485,4.70981623 6.20106044,4.63879003 C6.47063997,4.62152509 6.4799593,4.61522888 6.6411207,4.71971038 C7.08227224,5.00557308 7.2859293,6.4007232 7.14171698,7.12976298 C7.05836539,7.54976758 6.89142491,7.90514157 6.76277884,8.27105615 C6.6893007,8.5493838 6.61582256,8.82771144 6.5439127,9.1059569 C5.57108971,9.14752976 4.98841276,8.14555934 4.79259824,7.31984357 Z M11.0916971,11.4127113 C10.6035458,13.6534506 11.0918106,14.4593471 9.72757513,14.8745167 C8.06607457,14.8749144 8.61741252,12.1178927 8.4375542,11.5258013 C8.21298928,11.0820684 7.90036658,10.5500718 7.76700815,10.2042007 C7.72795867,10.18927 7.38256705,9.5328799 7.37618025,9.5328799 C7.49433616,9.19437919 7.92304129,7.44545646 8.01564997,7.07342501 C8.12582237,6.6327354 8.11145206,5.99245811 8.03321369,5.54059158 C7.8272392,4.34785557 7.27548097,3.48752807 5.71710035,3.91225067 C5.40893697,3.99687585 5.12472411,4.13738558 4.86126837,4.2683151 C4.93152323,2.69716084 5.9420453,1.94712571 7.09646045,1.44895485 C7.35193269,1.37710328 7.60740492,1.30684842 7.86287715,1.23499685 C8.00019348,1.22381994 8.1359131,1.21104633 8.27322943,1.19986942 C10.4395309,1.28765653 11.7690562,2.57319417 12.242808,3.76786451 C10.6052731,3.18478031 9.27570862,4.8000574 9.72757513,6.33289083 C10.1028,7.60705861 11.1376183,8.89689453 11.7874758,9.90920328 C11.384624,10.3776067 11.1818912,10.879642 11.0916971,11.4127113 Z" id="Shape"></path>
        </g>
    </g>
</svg>