<svg width="16" height="13" viewBox="0 0 16 13" fill="none" xmlns="http://www.w3.org/2000/svg">
<path d="M13.3594 12.6295H7.58704C7.25668 12.6295 6.96204 12.5982 6.70311 12.5357C6.44418 12.4732 6.20311 12.3705 5.97989 12.2277C5.75668 12.0848 5.53793 11.8929 5.32364 11.6518L1.64061 7.7009C1.38168 7.41073 1.19864 7.16073 1.0915 6.9509C0.988822 6.73662 0.937483 6.52233 0.937483 6.30805C0.937483 6.16519 0.959804 6.02456 1.00445 5.88617C1.04909 5.74778 1.12275 5.60046 1.22543 5.44421C1.32811 5.28796 1.4665 5.11608 1.64061 4.92858L5.31695 0.950904C5.53123 0.714297 5.74998 0.526797 5.9732 0.388404C6.19641 0.250011 6.43748 0.151797 6.69641 0.0937608C6.9598 0.0357251 7.25668 0.00670722 7.58704 0.00670722H13.3594C14.1004 0.00670722 14.6629 0.198672 15.0469 0.5826C15.4308 0.962064 15.6228 1.51787 15.6228 2.25001V10.4732C15.6228 11.2098 15.4308 11.7522 15.0469 12.1005C14.6629 12.4531 14.1004 12.6295 13.3594 12.6295ZM13.2321 11.1429C13.5268 11.1429 13.75 11.0692 13.9018 10.9219C14.058 10.7701 14.1361 10.5402 14.1361 10.2322V2.40403C14.1361 2.09599 14.058 1.86831 13.9018 1.72099C13.75 1.56921 13.5268 1.49331 13.2321 1.49331H7.49998C7.28123 1.49331 7.0915 1.52233 6.93079 1.58037C6.77454 1.63394 6.61829 1.74331 6.46204 1.90849L2.81248 5.84599C2.65623 6.01564 2.57811 6.16965 2.57811 6.30805C2.57811 6.37948 2.59373 6.45314 2.62498 6.52903C2.6607 6.60046 2.7232 6.68081 2.81248 6.7701L6.46873 10.6942C6.62052 10.8594 6.77454 10.9755 6.93079 11.0424C7.0915 11.1094 7.28346 11.1429 7.50668 11.1429H13.2321ZM7.38614 9.11385C7.20757 9.11385 7.05355 9.05135 6.92409 8.92635C6.79909 8.79689 6.73659 8.64064 6.73659 8.4576C6.73659 8.28349 6.80132 8.13171 6.93079 8.00224L8.60489 6.32144L6.93079 4.64733C6.80132 4.51787 6.73659 4.36608 6.73659 4.19198C6.73659 4.00894 6.79909 3.85492 6.92409 3.72992C7.05355 3.60492 7.20757 3.54242 7.38614 3.54242C7.57811 3.54242 7.73659 3.60715 7.86159 3.73662L9.529 5.40403L11.2165 3.72992C11.346 3.60046 11.5022 3.53573 11.6853 3.53573C11.8683 3.53573 12.0223 3.60046 12.1473 3.72992C12.2723 3.85492 12.3348 4.00671 12.3348 4.18528C12.3348 4.35939 12.2701 4.51117 12.1406 4.64064L10.4665 6.32144L12.1339 7.99555C12.2634 8.12948 12.3281 8.28349 12.3281 8.4576C12.3281 8.64064 12.2656 8.79689 12.1406 8.92635C12.0156 9.05135 11.8616 9.11385 11.6786 9.11385C11.4911 9.11385 11.3326 9.04912 11.2031 8.91965L9.529 7.25224L7.86829 8.91965C7.74329 9.04912 7.58257 9.11385 7.38614 9.11385Z" fill="#A9A9A9"/>
</svg>
