<svg width="16" height="14" viewBox="0 0 16 14" fill="none" xmlns="http://www.w3.org/2000/svg">
<path d="M5.3147 13.3348C5.11381 13.3348 4.9397 13.2589 4.79238 13.1072L0.941934 9.32367C0.866041 9.24778 0.808005 9.16296 0.767827 9.06921C0.727648 8.97099 0.707559 8.87278 0.707559 8.77456C0.707559 8.67189 0.727648 8.57367 0.767827 8.47992C0.808005 8.38617 0.866041 8.30135 0.941934 8.22546L4.79238 4.44198C4.9397 4.29019 5.11381 4.2143 5.3147 4.2143C5.53345 4.2143 5.70756 4.28349 5.83702 4.42189C5.97095 4.55581 6.03792 4.72323 6.03792 4.92412C6.03792 5.03573 6.01783 5.13394 5.97765 5.21876C5.93747 5.30358 5.88613 5.37724 5.82363 5.43974L4.10265 7.11385L2.42854 8.5268L2.22095 8.1384L4.47765 8.04465H12.808C13.1428 8.04465 13.3861 7.96876 13.5379 7.81698C13.6942 7.66073 13.7723 7.40849 13.7723 7.06028V3.18305C13.7723 2.84376 13.6942 2.59823 13.5379 2.44644C13.3861 2.29465 13.1428 2.21876 12.808 2.21876H9.12497C8.90176 2.21876 8.72095 2.14733 8.58256 2.00448C8.44417 1.86162 8.37497 1.68751 8.37497 1.48215C8.37497 1.28126 8.44417 1.10939 8.58256 0.966529C8.72542 0.819207 8.90622 0.745547 9.12497 0.745547H12.8415C13.6808 0.745547 14.2879 0.935279 14.6629 1.31474C15.0379 1.68974 15.2254 2.29689 15.2254 3.13617V7.10715C15.2254 7.93305 15.0379 8.54019 14.6629 8.92858C14.2879 9.31698 13.6808 9.51117 12.8415 9.51117H4.47765L2.22095 9.40403L2.42854 9.02233L4.10265 10.4353L5.82363 12.1094C5.88613 12.1764 5.93747 12.25 5.97765 12.3304C6.01783 12.4152 6.03792 12.5112 6.03792 12.6183C6.03792 12.8281 5.97095 13 5.83702 13.1339C5.70756 13.2679 5.53345 13.3348 5.3147 13.3348Z" fill="#A9A9A9"/>
</svg>
