<svg width="17" height="16" viewBox="0 0 17 16" fill="none" xmlns="http://www.w3.org/2000/svg">
<rect x="0.5" y="0.959045" width="15.6923" height="15.0385" rx="2.61538" fill="none"/>
<path d="M8.04988 13.5219C7.3143 13.5219 6.6247 13.3822 5.98107 13.103C5.33744 12.8272 4.77043 12.4457 4.28005 11.9588C3.79307 11.4718 3.41166 10.9065 3.13582 10.2629C2.85998 9.61922 2.72206 8.92962 2.72206 8.19404C2.72206 8.03398 2.77825 7.89606 2.89063 7.78028C3.00641 7.66449 3.14433 7.6066 3.30439 7.6066C3.46785 7.6066 3.60747 7.66449 3.72326 7.78028C3.83904 7.89606 3.89694 8.03398 3.89694 8.19404C3.89694 8.76616 4.00421 9.30422 4.21875 9.80822C4.43329 10.3088 4.72957 10.7498 5.10757 11.1312C5.48898 11.5126 5.92999 11.8106 6.43059 12.0252C6.9346 12.2397 7.47436 12.347 8.04988 12.347C8.6254 12.347 9.16346 12.2397 9.66406 12.0252C10.1681 11.8106 10.6091 11.5126 10.9871 11.1312C11.3685 10.7498 11.6665 10.3088 11.881 9.80822C12.0956 9.30422 12.2028 8.76616 12.2028 8.19404C12.2028 7.61852 12.0956 7.08046 11.881 6.57986C11.6665 6.07585 11.3685 5.63485 10.9871 5.25684C10.6091 4.87543 10.1681 4.57745 9.66406 4.36291C9.16346 4.14837 8.6254 4.0411 8.04988 4.0411C7.88982 4.0411 7.7519 3.9832 7.63612 3.86742C7.52033 3.75163 7.46244 3.61371 7.46244 3.45366C7.46244 3.29019 7.52033 3.15227 7.63612 3.03989C7.7519 2.92411 7.88982 2.86622 8.04988 2.86622C8.78546 2.86622 9.47506 3.00414 10.1187 3.27998C10.7623 3.55582 11.3276 3.93893 11.8146 4.42932C12.3016 4.9163 12.683 5.4816 12.9588 6.12523C13.2381 6.76886 13.3777 7.45846 13.3777 8.19404C13.3777 8.92962 13.2381 9.61922 12.9588 10.2629C12.683 10.9065 12.3016 11.4718 11.8146 11.9588C11.3276 12.4457 10.7623 12.8272 10.1187 13.103C9.47506 13.3822 8.78546 13.5219 8.04988 13.5219ZM2.90084 6.05882V3.78569C2.90084 3.34979 3.11879 3.13184 3.55469 3.13184L5.83293 3.13695C5.97256 3.13695 6.09175 3.18803 6.19051 3.29019C6.28926 3.38895 6.33864 3.50985 6.33864 3.65288C6.33864 3.7925 6.28926 3.91339 6.19051 4.01556C6.09175 4.11772 5.97256 4.1688 5.83293 4.1688C5.7512 4.1688 5.63882 4.1671 5.49579 4.16369C5.35617 4.16029 5.20293 4.15518 5.03606 4.14837C4.8726 4.14156 4.71254 4.12794 4.55589 4.1075L5.4396 4.86862L7.9988 7.42271C8.11799 7.54871 8.17758 7.69003 8.17758 7.84668C8.17758 8.01015 8.1231 8.14807 8.01412 8.26045C7.90515 8.36942 7.76893 8.42221 7.60547 8.4188C7.44882 8.4188 7.3109 8.3575 7.19171 8.23491L4.6274 5.6706L3.88161 4.792C3.89523 4.93503 3.90545 5.08997 3.91226 5.25684C3.91907 5.42371 3.92248 5.58036 3.92248 5.72679C3.92588 5.87323 3.92759 5.9839 3.92759 6.05882C3.92759 6.20185 3.8765 6.32275 3.77434 6.4215C3.67558 6.52026 3.55639 6.56964 3.41677 6.56964C3.27374 6.56964 3.15114 6.52026 3.04898 6.4215C2.95022 6.32275 2.90084 6.20185 2.90084 6.05882Z" fill="#A9A9A9"/>
</svg>
