<svg width="21" height="16" viewBox="0 0 21 16" fill="none" xmlns="http://www.w3.org/2000/svg">
    <rect x="1.11539" y="0.66" width="18.56" height="14.68" rx="2.06" stroke="#A9A9A9"/>
    <path d="M5.95538 7.5L5.14039 7.495C4.78039 7.49167 4.45039 7.40333 4.15039 7.23C3.85372 7.05667 3.61539 6.82333 3.43539 6.53C3.25872 6.23333 3.17039 5.90333 3.17039 5.54C3.17039 5.17667 3.25872 4.84667 3.43539 4.55C3.61539 4.25 3.85372 4.01167 4.15039 3.835C4.45039 3.655 4.78205 3.565 5.14539 3.565C5.50538 3.565 5.83372 3.655 6.13038 3.835C6.43038 4.01167 6.66872 4.25 6.84538 4.55C7.02205 4.85 7.11038 5.18 7.11038 5.54V6.34H8.90038V5.54C8.90038 5.18 8.98872 4.85 9.16538 4.55C9.34538 4.25 9.58372 4.01167 9.88038 3.835C10.1771 3.655 10.5054 3.565 10.8654 3.565C11.2321 3.565 11.5637 3.655 11.8604 3.835C12.1604 4.01167 12.3987 4.25 12.5754 4.55C12.7521 4.84667 12.8404 5.17667 12.8404 5.54C12.8404 5.90333 12.7521 6.23333 12.5754 6.53C12.3987 6.82333 12.1604 7.05667 11.8604 7.23C11.5637 7.40333 11.2337 7.49167 10.8704 7.495L10.0554 7.5V9.295H10.8704C11.2337 9.29833 11.5637 9.38667 11.8604 9.56C12.1604 9.73333 12.3987 9.96833 12.5754 10.265C12.7521 10.5583 12.8404 10.8867 12.8404 11.25C12.8404 11.6133 12.7521 11.9433 12.5754 12.24C12.3987 12.54 12.1604 12.7783 11.8604 12.955C11.5637 13.135 11.2321 13.225 10.8654 13.225C10.5054 13.225 10.1771 13.135 9.88038 12.955C9.58372 12.7783 9.34538 12.54 9.16538 12.24C8.98872 11.9433 8.90038 11.6133 8.90038 11.25V10.455H7.11038V11.25C7.11038 11.6133 7.02205 11.9433 6.84538 12.24C6.66872 12.54 6.43038 12.7783 6.13038 12.955C5.83372 13.135 5.50538 13.225 5.14539 13.225C4.78205 13.225 4.45039 13.135 4.15039 12.955C3.85372 12.7783 3.61539 12.54 3.43539 12.24C3.25872 11.9433 3.17039 11.6133 3.17039 11.25C3.17039 10.8867 3.25872 10.5583 3.43539 10.265C3.61539 9.96833 3.85372 9.73333 4.15039 9.56C4.45039 9.38667 4.78039 9.29833 5.14039 9.295H5.95538V7.5ZM5.17539 6.35H5.94538V5.575C5.94538 5.41833 5.90872 5.27667 5.83538 5.15C5.76205 5.02333 5.66372 4.92333 5.54038 4.85C5.42039 4.77333 5.28872 4.735 5.14539 4.735C4.99539 4.735 4.86039 4.77167 4.74039 4.845C4.62039 4.91833 4.52372 5.01667 4.45039 5.14C4.37705 5.26 4.34039 5.39333 4.34039 5.54C4.34039 5.69 4.37705 5.82667 4.45039 5.95C4.52705 6.07 4.62705 6.16667 4.75039 6.24C4.87705 6.31333 5.01872 6.35 5.17539 6.35ZM10.8354 6.35C10.9921 6.35 11.1337 6.31333 11.2604 6.24C11.3871 6.16667 11.4871 6.07 11.5604 5.95C11.6337 5.82667 11.6704 5.69 11.6704 5.54C11.6704 5.39333 11.6337 5.26 11.5604 5.14C11.4904 5.01667 11.3937 4.91833 11.2704 4.845C11.1504 4.77167 11.0154 4.735 10.8654 4.735C10.7221 4.735 10.5887 4.77333 10.4654 4.85C10.3454 4.92333 10.2487 5.02333 10.1754 5.15C10.1021 5.27667 10.0654 5.41833 10.0654 5.575V6.35H10.8354ZM7.11038 9.295H8.90038V7.5H7.11038V9.295ZM5.17539 10.44C5.01872 10.44 4.87705 10.4767 4.75039 10.55C4.62705 10.62 4.52705 10.7167 4.45039 10.84C4.37705 10.96 4.34039 11.095 4.34039 11.245C4.34039 11.3917 4.37705 11.5267 4.45039 11.65C4.52372 11.7733 4.62039 11.8717 4.74039 11.945C4.86039 12.015 4.99539 12.05 5.14539 12.05C5.28872 12.05 5.42039 12.0133 5.54038 11.94C5.66372 11.8667 5.76205 11.7667 5.83538 11.64C5.90872 11.5133 5.94538 11.3717 5.94538 11.215V10.44H5.17539ZM10.8354 10.44H10.0654V11.215C10.0654 11.3717 10.1021 11.5133 10.1754 11.64C10.2487 11.7667 10.3454 11.8667 10.4654 11.94C10.5887 12.0133 10.7221 12.05 10.8654 12.05C11.0154 12.05 11.1504 12.015 11.2704 11.945C11.3937 11.8717 11.4904 11.7733 11.5604 11.65C11.6337 11.5267 11.6704 11.3917 11.6704 11.245C11.6704 11.095 11.6337 10.96 11.5604 10.84C11.4871 10.7167 11.3871 10.62 11.2604 10.55C11.1337 10.4767 10.9921 10.44 10.8354 10.44ZM15.7123 12V3.88312H16.9723V12H15.7123Z" fill="#A9A9A9"/>
</svg>
